<svg xmlns="http://www.w3.org/2000/svg" viewBox="0 0 92.13 91.87"><defs><style>.a{fill:#fff;}</style></defs><path class="a" d="M51,38.39a23.21,23.21,0,0,1,7.22-6.77A19.87,19.87,0,0,1,70.68,29a48.3,48.3,0,0,1,7.42,1.12C85.05,32,89,37,90.58,43.78A56.55,56.55,0,0,1,92,55.36c.19,11.65,0,23.31.1,35,0,1.24-.39,1.55-1.57,1.54-5.36-.05-10.72,0-16.07,0-1.67,0-1.69,0-1.69-1.66,0-10.06,0-20.12,0-30.18A35.11,35.11,0,0,0,72,52.56c-1-4.44-3.86-6.59-8.42-6.64a17.36,17.36,0,0,0-4.26.42c-4.4,1.1-6.24,4.45-7,8.52a35.15,35.15,0,0,0-.5,6.06c0,9.79,0,19.57,0,29.35,0,1.57,0,1.58-1.6,1.58-5.4,0-10.8,0-16.19,0-1.18,0-1.59-.31-1.59-1.55q.06-29.16,0-58.32c0-1.57,0-1.58,1.59-1.58,5.24,0,10.48,0,15.71,0,1,0,1.36.26,1.33,1.27C51,33.92,51,36.15,51,38.39Z"/><path class="a" d="M1.45,61.17V32.08c0-1.65,0-1.66,1.6-1.66,5.44,0,10.87,0,16.31,0,1.06,0,1.47.24,1.46,1.39q0,29.33,0,58.66c0,1.15-.42,1.42-1.46,1.42q-8.22-.06-16.44,0c-1.13,0-1.5-.32-1.5-1.49C1.47,80.65,1.45,70.91,1.45,61.17Z"/><path class="a" d="M11.05,22.22A11,11,0,0,1,0,11.11a11.13,11.13,0,1,1,22.26.14A11.05,11.05,0,0,1,11.05,22.22Z"/></svg>